<?xml version="1.0" standalone="no"?>
<!DOCTYPE svg PUBLIC "-//W3C//DTD SVG 20010904//EN"
 "http://www.w3.org/TR/2001/REC-SVG-20010904/DTD/svg10.dtd">
<svg version="1.0" xmlns="http://www.w3.org/2000/svg"
 width="1264.000000pt" height="1264.000000pt" viewBox="0 0 1264.000000 1264.000000"
 preserveAspectRatio="xMidYMid meet">
<metadata>
Created by potrace 1.14, written by Peter Selinger 2001-2017
</metadata>
<g transform="translate(0.000000,1264.000000) scale(0.100000,-0.100000)"
fill="#000000" stroke="none">
<path d="M4648 9663 c-10 -3 -18 -9 -18 -14 0 -5 -4 -9 -10 -9 -5 0 -33 -25
-62 -56 -29 -31 -59 -63 -67 -71 -93 -98 -224 -286 -453 -653 -53 -85 -101
-160 -106 -166 -5 -5 -22 -32 -37 -60 -15 -27 -33 -56 -41 -65 -8 -8 -14 -18
-14 -22 0 -9 -64 -112 -72 -115 -5 -2 -8 -8 -8 -13 0 -5 -22 -46 -50 -90 -27
-44 -50 -85 -50 -90 0 -5 -4 -9 -10 -9 -5 0 -10 -5 -10 -11 0 -6 -31 -63 -70
-126 -38 -64 -70 -117 -70 -120 0 -2 -5 -9 -10 -16 -6 -7 -47 -70 -92 -142
-45 -71 -86 -131 -90 -133 -4 -2 -8 -8 -8 -12 0 -5 -18 -35 -40 -67 -22 -32
-46 -66 -53 -76 -48 -73 -167 -222 -215 -272 -32 -34 -83 -72 -114 -88 -31
-16 -78 -51 -105 -79 -26 -27 -55 -57 -64 -66 -18 -19 -124 -154 -154 -196
-11 -16 -29 -40 -41 -55 -27 -34 -284 -424 -349 -531 -27 -45 -56 -87 -62 -95
-7 -7 -13 -16 -13 -20 0 -3 -53 -85 -117 -181 -65 -97 -122 -183 -128 -192 -5
-8 -15 -23 -22 -31 -7 -9 -36 -48 -65 -88 -45 -60 -125 -158 -163 -197 -6 -6
-35 -42 -64 -81 -29 -38 -58 -77 -64 -85 -7 -8 -39 -51 -72 -95 -32 -44 -64
-85 -69 -92 -6 -6 -29 -36 -51 -67 -22 -31 -43 -56 -48 -56 -4 0 -6 -4 -2 -9
3 -6 -1 -13 -9 -18 -7 -4 -31 -39 -51 -78 -46 -86 -109 -166 -245 -314 -156
-169 -248 -267 -325 -347 -49 -52 -169 -176 -265 -276 -96 -100 -193 -200
-215 -223 -22 -22 -51 -53 -64 -68 l-25 -27 55 5 c30 2 86 7 124 10 211 16
229 19 300 42 130 42 234 122 475 364 202 204 321 334 479 519 58 69 108 127
112 130 3 3 23 27 43 54 40 52 108 138 116 146 3 3 44 57 90 120 47 63 88 120
92 125 4 6 18 24 31 40 13 17 58 80 100 140 42 61 83 117 90 125 7 8 40 55 72
105 33 49 64 94 68 100 28 35 237 358 237 366 0 5 3 9 8 9 4 0 12 9 17 20 6
11 67 111 138 223 118 187 202 297 227 297 5 0 10 4 10 9 0 18 124 70 176 75
80 7 123 31 194 105 82 87 136 165 265 383 38 65 139 240 158 273 12 22 25 42
28 45 3 3 21 32 39 65 19 33 37 62 42 63 4 2 8 10 8 18 0 8 5 20 10 27 13 15
140 216 140 221 0 6 258 410 349 546 42 63 78 120 80 125 2 6 7 12 10 15 4 3
38 50 76 105 68 99 158 218 181 242 7 7 21 23 31 36 10 12 29 30 42 40 25 16
26 16 70 -31 46 -48 110 -120 145 -163 11 -13 41 -49 68 -80 26 -31 48 -62 48
-70 0 -7 3 -9 7 -6 3 4 13 -4 22 -17 9 -13 89 -118 179 -233 90 -114 171 -218
180 -230 9 -12 24 -31 32 -43 38 -53 153 -204 166 -217 8 -8 14 -18 14 -22 0
-4 8 -16 18 -27 72 -79 474 -674 455 -674 -3 0 1 -8 10 -17 21 -25 64 -121 75
-170 7 -29 5 -49 -4 -72 -17 -39 -104 -175 -115 -179 -5 -2 -9 -8 -9 -13 0 -5
-6 -17 -14 -26 -8 -10 -59 -74 -114 -143 -54 -69 -109 -136 -121 -150 -13 -14
-41 -47 -64 -74 -65 -77 -170 -198 -188 -217 -16 -16 -25 -11 -140 64 -68 45
-126 84 -129 87 -3 3 -17 12 -32 20 -15 8 -48 28 -74 44 -26 16 -50 24 -55 19
-15 -15 76 -159 177 -281 83 -101 127 -151 262 -301 296 -328 798 -831 828
-831 15 0 -38 80 -153 233 -75 99 -72 95 -103 133 -14 17 -37 46 -52 65 -14
19 -92 117 -172 217 -85 107 -143 189 -139 195 10 18 65 88 91 117 12 13 22
28 22 32 0 3 6 13 13 20 7 7 35 42 62 78 27 36 52 67 55 70 3 3 32 41 64 85
33 44 63 82 68 83 4 2 8 8 8 13 0 5 19 33 43 62 23 30 54 69 68 88 15 19 63
81 108 139 44 57 81 108 81 113 0 4 5 5 10 2 6 -3 10 -1 10 5 0 11 102 142
139 181 9 9 30 33 46 54 71 91 198 225 213 225 24 0 258 -233 385 -384 23 -28
52 -60 64 -73 11 -13 36 -42 55 -65 18 -23 38 -46 44 -52 6 -6 48 -56 95 -111
144 -171 276 -318 427 -474 45 -47 82 -90 82 -95 0 -5 2 -7 5 -5 2 3 57 -46
121 -108 64 -62 164 -152 223 -200 58 -48 113 -93 121 -100 8 -7 44 -37 80
-65 36 -29 70 -57 77 -63 7 -5 18 -15 25 -20 12 -10 282 -232 323 -267 11 -9
54 -44 95 -78 41 -34 77 -65 80 -69 3 -3 21 -18 40 -33 19 -15 47 -37 61 -50
15 -13 48 -41 75 -63 26 -22 52 -45 58 -50 6 -6 36 -30 66 -55 30 -25 57 -47
60 -51 3 -3 111 -90 240 -193 129 -103 244 -195 255 -204 66 -56 330 -245 370
-267 65 -34 115 -73 115 -90 0 -7 -28 -27 -62 -44 -79 -38 -304 -128 -338
-134 -14 -3 -29 -6 -35 -8 -22 -7 -114 13 -156 32 -58 28 -179 109 -179 120 0
5 -5 9 -11 9 -10 0 -153 119 -249 206 -19 18 -51 47 -70 64 -41 37 -236 219
-291 270 -61 57 -316 300 -389 370 -139 133 -395 376 -441 420 -26 25 -116
110 -200 190 -226 215 -321 305 -350 331 -24 22 -184 171 -279 259 -21 19 -73
67 -115 105 -43 39 -94 85 -114 103 -20 18 -58 52 -85 75 -27 23 -58 51 -70
62 -33 32 -163 135 -170 135 -3 0 -6 -10 -6 -22 0 -27 120 -248 160 -295 8
-10 21 -31 29 -46 8 -15 18 -27 23 -27 4 0 8 -4 8 -10 0 -8 49 -83 83 -125 4
-5 42 -57 85 -115 42 -58 87 -116 99 -130 13 -14 23 -28 23 -31 0 -3 10 -17
21 -30 12 -13 33 -40 48 -59 14 -19 28 -37 31 -40 3 -3 21 -25 40 -50 19 -25
39 -50 45 -56 5 -6 32 -38 60 -70 63 -76 543 -555 699 -699 66 -60 148 -137
183 -169 35 -32 72 -66 82 -75 15 -14 140 -125 175 -156 59 -54 177 -157 200
-176 16 -13 36 -31 45 -40 9 -8 61 -53 116 -100 55 -46 102 -86 105 -89 4 -5
105 -87 150 -123 234 -187 262 -212 287 -257 26 -47 21 -82 -19 -135 -32 -43
-108 -87 -168 -98 -14 -3 -41 -8 -60 -11 -98 -19 -251 -27 -570 -31 -518 -7
-701 -27 -771 -84 l-24 -19 26 -10 c83 -32 403 -42 1339 -42 696 0 1056 3
1910 15 644 9 1009 14 1085 15 l70 0 -46 43 c-53 48 -191 173 -218 196 -15 14
-163 147 -195 176 -39 36 -217 196 -245 220 -18 17 -46 41 -61 55 -15 14 -60
54 -100 90 -40 36 -90 81 -111 100 -20 19 -64 58 -96 87 -33 29 -73 65 -90 80
-16 15 -63 57 -103 93 -40 36 -85 76 -100 90 -48 44 -164 149 -186 167 -12 10
-61 55 -110 99 -49 45 -107 98 -129 118 -22 20 -121 92 -220 161 -178 123
-207 145 -275 209 -163 153 -246 323 -437 896 -52 157 -96 290 -97 295 -2 6
-6 17 -9 25 -3 8 -22 65 -43 125 -20 61 -41 118 -46 128 -10 20 6 23 27 5 7
-7 32 -29 56 -48 23 -19 48 -41 55 -47 7 -7 15 -13 18 -13 3 0 14 -8 24 -17
22 -21 40 -37 147 -123 44 -35 82 -67 85 -70 5 -6 168 -133 226 -177 137 -103
282 -203 293 -203 5 0 11 -4 13 -9 9 -25 308 -186 357 -193 14 -2 28 4 34 14
24 37 -112 194 -514 597 -108 108 -258 255 -335 327 -153 145 -162 153 -289
269 -130 118 -129 117 -181 160 -27 22 -59 50 -72 63 -13 12 -25 22 -28 22 -2
0 -17 11 -32 24 -36 32 -100 76 -127 86 -14 5 -37 1 -70 -14 -103 -44 -179
-104 -409 -321 -58 -55 -134 -103 -171 -109 -29 -4 -75 13 -115 44 -57 44
-112 68 -155 66 -44 -2 -160 -53 -249 -110 -31 -20 -58 -36 -61 -36 -3 0 -34
-18 -70 -40 -36 -22 -67 -40 -70 -40 -2 0 -14 11 -27 23 -28 28 -339 355 -388
407 -297 317 -637 663 -708 720 -63 51 -140 90 -179 90 -19 0 -56 -11 -82 -24
-25 -13 -68 -36 -96 -50 -63 -33 -124 -29 -187 10 -60 38 -171 151 -273 279
-22 28 -45 55 -51 60 -6 6 -42 51 -80 100 -38 50 -73 95 -79 101 -5 6 -17 22
-25 34 -14 21 -29 39 -71 88 -10 12 -19 26 -19 31 0 5 -3 11 -7 13 -8 3 -21
19 -213 273 -63 83 -119 155 -125 162 -23 27 -32 39 -41 54 -5 9 -22 33 -39
54 -125 158 -287 360 -320 399 -48 57 -210 223 -245 250 -32 25 -110 54 -132
49z m4688 -3118 c8 -13 17 -32 19 -44 3 -11 7 -30 10 -42 2 -11 7 -29 10 -39
3 -10 10 -42 15 -72 5 -29 12 -64 15 -78 3 -14 7 -43 10 -65 2 -22 7 -51 9
-65 3 -14 8 -44 10 -65 12 -109 18 -152 22 -175 3 -14 7 -77 9 -141 5 -102 3
-118 -13 -132 -16 -15 -21 -15 -67 7 -28 13 -72 43 -100 66 -27 22 -66 54 -85
70 -19 16 -49 41 -66 57 -17 15 -53 47 -80 70 -27 23 -59 50 -70 60 -113 98
-134 118 -134 127 0 7 35 55 78 107 42 53 90 114 107 135 16 21 64 73 105 114
131 131 167 150 196 105z"/>
<path d="M4902 7936 c-119 -118 -228 -225 -242 -236 -54 -46 -109 -62 -159
-46 -24 8 -182 104 -191 117 -9 13 -95 37 -103 30 -4 -5 -10 -30 -13 -57 -2
-27 -17 -78 -31 -114 -30 -73 -132 -264 -173 -325 -15 -22 -30 -50 -34 -62 -4
-13 -12 -23 -17 -23 -5 0 -9 -4 -9 -10 0 -12 -64 -114 -245 -390 -41 -63 -97
-148 -123 -189 -26 -40 -52 -78 -57 -85 -9 -10 -35 -47 -60 -87 -5 -9 -22 -34
-37 -55 -15 -21 -60 -87 -100 -145 -109 -158 -217 -312 -273 -389 -27 -38 -66
-92 -85 -121 -19 -28 -43 -60 -52 -70 -10 -11 -18 -21 -18 -24 0 -3 -17 -27
-37 -54 -21 -27 -45 -59 -55 -72 -38 -56 -341 -464 -347 -469 -3 -3 -40 -50
-80 -105 -41 -55 -80 -105 -85 -112 -18 -21 -30 -35 -84 -107 -29 -37 -58 -74
-65 -81 -7 -7 -21 -25 -32 -41 -11 -15 -28 -37 -37 -48 -10 -12 -32 -39 -50
-62 -68 -84 -100 -124 -116 -142 -10 -11 -35 -41 -57 -68 -22 -26 -49 -58 -60
-70 -23 -25 -39 -44 -110 -129 -27 -33 -54 -65 -60 -71 -12 -12 -93 -107 -149
-173 -21 -25 -47 -55 -57 -66 -17 -19 -59 -70 -86 -105 -10 -13 89 -15 894
-15 l905 0 105 180 c58 99 117 200 131 225 31 55 179 309 192 330 41 67 140
244 140 251 0 5 3 9 8 9 4 0 18 21 32 48 13 26 41 74 61 107 30 48 209 360
334 580 186 327 333 591 330 593 -7 7 -242 -154 -289 -197 -76 -71 -177 -173
-285 -290 -130 -139 -146 -157 -211 -231 -30 -35 -62 -70 -71 -79 -8 -9 -55
-63 -105 -121 -49 -58 -93 -110 -99 -116 -5 -6 -26 -30 -45 -54 -19 -24 -44
-53 -55 -64 -11 -12 -37 -41 -57 -66 -20 -25 -49 -58 -63 -75 -15 -16 -46 -52
-70 -80 -80 -92 -177 -204 -210 -239 -11 -12 -54 -60 -95 -105 -118 -131 -241
-254 -247 -248 -7 8 137 240 167 267 3 3 25 34 50 70 46 68 131 183 155 212 7
9 22 29 32 45 10 15 25 37 35 48 16 20 104 135 358 472 74 98 137 180 140 183
3 3 14 19 24 35 11 17 25 34 33 38 7 4 13 13 13 18 0 8 43 72 78 114 4 6 39
55 77 110 38 55 73 105 78 110 35 41 517 769 517 781 0 3 5 10 10 17 22 26
136 215 203 337 17 30 40 71 52 90 11 19 26 46 33 60 6 14 16 32 22 40 5 8 41
71 78 140 321 587 470 912 431 936 -5 3 -107 -92 -227 -210z"/>
<path d="M4790 4488 c-47 -28 -98 -58 -115 -68 -33 -19 -284 -180 -300 -192
-5 -5 -28 -22 -50 -38 -44 -33 -41 -30 -105 -80 -85 -66 -115 -94 -253 -233
-138 -141 -164 -180 -134 -202 30 -21 113 -10 182 26 36 18 65 37 65 41 0 4 5
8 10 8 17 0 205 148 282 223 16 15 33 27 38 27 6 0 10 7 10 15 0 8 4 15 8 15
8 0 228 218 288 285 14 17 45 50 68 75 23 25 61 69 85 98 56 68 36 68 -79 0z"/>
<path d="M7003 4372 c-17 -12 -8 -49 23 -89 31 -41 214 -226 304 -308 31 -27
96 -87 145 -131 50 -45 108 -98 129 -118 22 -20 44 -36 49 -36 5 0 7 -6 5 -12
-3 -9 -60 -13 -219 -15 -118 -2 -223 -3 -234 -3 -11 0 -27 0 -35 0 -8 0 -260
-2 -560 -6 -300 -3 -650 -7 -777 -8 -128 0 -233 -3 -233 -6 0 -3 -64 -5 -143
-6 -215 -2 -328 -7 -333 -16 -3 -4 16 -8 43 -9 26 0 57 -2 68 -5 11 -2 52 -6
90 -9 153 -12 243 -40 259 -80 3 -8 0 -28 -6 -46 -9 -26 -8 -34 9 -51 26 -25
116 -46 233 -53 30 -2 55 -4 55 -5 0 -13 1383 -18 1760 -6 415 12 554 23 688
52 30 6 35 26 16 68 -7 14 -23 26 -40 30 -30 6 -122 60 -232 138 -37 26 -72
48 -77 48 -6 0 -10 3 -10 8 0 4 -20 21 -45 37 -24 17 -45 33 -45 38 0 4 -5 7
-10 7 -9 0 -153 102 -170 120 -3 3 -29 23 -59 44 -30 21 -59 43 -65 48 -31 26
-323 237 -406 293 -104 70 -160 97 -177 87z"/>
</g>
</svg>
